# Blender 3.3.0
# www.blender.org
mtllib TestBox.mtl
o 立方体
v 0.392021 -0.500000 -0.392021
v 0.392021 -0.392021 -0.500000
v 0.500000 -0.392021 -0.392021
v 0.392021 0.392021 -0.500000
v 0.392021 0.500000 -0.392021
v 0.500000 0.392021 -0.392021
v 0.392021 -0.500000 0.392021
v 0.500000 -0.392021 0.392021
v 0.392021 -0.392021 0.500000
v 0.392021 0.500000 0.392021
v 0.392021 0.392021 0.500000
v 0.500000 0.392021 0.392021
v -0.392021 -0.500000 -0.392021
v -0.500000 -0.392021 -0.392021
v -0.392021 -0.392021 -0.500000
v -0.392021 0.500000 -0.392021
v -0.392021 0.392021 -0.500000
v -0.500000 0.392021 -0.392021
v -0.392021 -0.500000 0.392021
v -0.392021 -0.392021 0.500000
v -0.500000 -0.392021 0.392021
v -0.392021 0.500000 0.392021
v -0.500000 0.392021 0.392021
v -0.392021 0.392021 0.500000
vn -0.0000 -0.0000 -1.0000
vn -1.0000 -0.0000 -0.0000
vn -0.0000 1.0000 -0.0000
vn 1.0000 -0.0000 -0.0000
vn -0.0000 -0.0000 1.0000
vn 0.5774 -0.5774 -0.5774
vn 0.5774 0.5774 -0.5774
vn 0.5774 -0.5774 0.5774
vn 0.5774 0.5774 0.5774
vn -0.5774 -0.5774 -0.5774
vn -0.5774 0.5774 -0.5774
vn -0.5774 -0.5774 0.5774
vn -0.5774 0.5774 0.5774
vn 0.7071 -0.7071 -0.0000
vn 0.7071 -0.0000 -0.7071
vn 0.7071 0.7071 -0.0000
vn 0.7071 -0.0000 0.7071
vn -0.0000 -0.7071 0.7071
vn -0.0000 0.7071 0.7071
vn -0.7071 -0.0000 0.7071
vn -0.7071 -0.7071 -0.0000
vn -0.7071 0.7071 -0.0000
vn -0.7071 -0.0000 -0.7071
vn -0.0000 -0.7071 -0.7071
vn -0.0000 0.7071 -0.7071
vn -0.0000 -1.0000 -0.0000
vt 0.369398 0.698909
vt 0.329511 0.204795
vt 0.369398 0.232999
vt 0.409285 0.698909
vt 0.329511 0.261204
vt 0.409285 0.738796
vt 0.028205 0.465999
vt 0.698909 0.698909
vt 0.056409 0.505886
vt 0.738796 0.698909
vt 0.329511 0.465999
vt 0.698909 0.738796
vt 0.000000 0.505886
vt 0.039887 0.204795
vt 0.369398 0.039887
vt 0.039887 0.261204
vt 0.409285 0.000000
vt 0.000000 0.232999
vt 0.409285 0.039887
vt 0.738796 0.039887
vt 0.056409 0.795509
vt 0.028205 0.835397
vt 0.698909 0.039887
vt 0.039887 0.465999
vt 0.000000 0.795509
vt 0.698909 0.000000
vt 0.738796 0.329511
vt 0.369398 0.409285
vt 0.329511 0.000000
vt 0.795205 0.329511
vt 0.409285 0.369398
vt 0.767001 0.369398
vt 0.409285 0.409285
vt 0.738796 0.409285
vt 0.261204 0.505886
vt 0.795205 0.698909
vt 0.767001 0.738796
vt 0.698909 0.409285
vt 1.000000 0.329511
vt 0.738796 0.698909
vt 0.698909 0.369398
vt 0.369398 0.329511
vt 0.738796 0.039887
vt 0.039887 0.000000
vt 0.767001 0.000000
vt 0.409285 0.329511
vt 0.409285 0.369398
vt 0.795205 0.039887
vt 0.261204 0.795509
vt 0.795205 0.409285
vt 0.738796 0.329511
vt 0.698909 0.369398
vt 1.000000 0.039887
vt 0.738796 0.409285
vt 0.767001 0.369398
vt 0.698909 0.329511
s 0
usemtl マテリアル
f 17/38/1 2/4/1 15/33/1
f 23/53/2 14/30/2 21/48/2
f 10/21/3 16/35/3 22/49/3
f 6/11/4 8/16/4 3/5/4
f 11/23/5 20/46/5 9/19/5
f 1/2/6 2/3/6 3/5/6
f 4/7/7 5/9/7 6/13/7
f 7/14/8 8/16/8 9/18/8
f 10/21/9 11/22/9 12/25/9
f 13/27/10 14/30/10 15/32/10
f 16/36/11 17/37/11 18/40/11
f 19/43/12 20/45/12 21/48/12
f 22/50/13 23/54/13 24/55/13
f 1/2/14 8/16/14 7/14/14
f 4/8/15 3/6/15 2/4/15
f 10/21/16 6/13/16 5/9/16
f 9/19/17 12/26/17 11/23/17
f 7/15/18 20/46/18 19/42/18
f 22/51/19 11/23/19 10/20/19
f 21/47/20 24/56/20 23/52/20
f 19/43/21 14/30/21 13/27/21
f 16/36/22 23/54/22 22/50/22
f 15/33/23 18/41/23 17/38/23
f 13/28/24 2/4/24 1/1/24
f 5/10/25 17/38/25 16/34/25
f 19/44/26 1/2/26 7/14/26
f 17/38/1 4/8/1 2/4/1
f 23/53/2 18/39/2 14/30/2
f 10/21/3 5/9/3 16/35/3
f 6/11/4 12/24/4 8/16/4
f 11/23/5 24/56/5 20/46/5
f 1/2/14 3/5/14 8/16/14
f 4/8/15 6/12/15 3/6/15
f 10/21/16 12/25/16 6/13/16
f 9/19/17 8/17/17 12/26/17
f 7/15/18 9/19/18 20/46/18
f 22/51/19 24/56/19 11/23/19
f 21/47/20 20/46/20 24/56/20
f 19/43/21 21/48/21 14/30/21
f 16/36/22 18/40/22 23/54/22
f 15/33/23 14/31/23 18/41/23
f 13/28/24 15/33/24 2/4/24
f 5/10/25 4/8/25 17/38/25
f 19/44/26 13/29/26 1/2/26
