# Blender 3.3.0
# www.blender.org
mtllib SkyBox.mtl
o Cube
v -1.000000 1.000000 1.000000
v -1.000000 -1.000000 1.000000
v -1.000000 1.000000 -1.000000
v -1.000000 -1.000000 -1.000000
v 1.000000 1.000000 1.000000
v 1.000000 -1.000000 1.000000
v 1.000000 1.000000 -1.000000
v 1.000000 -1.000000 -1.000000
vn -0.0000 -1.0000 -0.0000
vn -0.0000 -0.0000 1.0000
vn -1.0000 -0.0000 -0.0000
vn -0.0000 1.0000 -0.0000
vn 1.0000 -0.0000 -0.0000
vn -0.0000 -0.0000 -1.0000
vt 1.000000 0.000000
vt 0.333333 0.666667
vt 0.333333 1.000000
vt 0.333333 0.333333
vt 0.333333 0.000000
vt 0.333333 0.666667
vt 1.000000 0.333333
vt 0.000000 0.333333
vt 0.666667 0.666667
vt 0.000000 0.000000
vt 0.333333 0.333333
vt 0.666667 0.333333
vt 0.666667 0.000000
vt 0.333333 0.666667
vt 0.000000 1.000000
vt 0.666667 0.000000
vt 0.000000 0.666667
vt 0.333333 0.333333
vt 0.666667 0.333333
vt 0.333333 0.333333
vt 0.000000 0.666667
vt 0.000000 0.333333
vt 0.333333 0.000000
vt 0.666667 0.333333
s 0
usemtl Material
f 3/7/1 5/13/1 1/1/1
f 8/23/2 3/8/2 4/10/2
f 6/18/3 7/21/3 8/22/3
f 8/24/4 2/5/4 6/16/4
f 4/12/5 1/2/5 2/4/5
f 2/6/6 5/15/6 6/17/6
f 3/7/1 7/19/1 5/13/1
f 8/23/2 7/20/2 3/8/2
f 6/18/3 5/14/3 7/21/3
f 8/24/4 4/11/4 2/5/4
f 4/12/5 3/9/5 1/2/5
f 2/6/6 1/3/6 5/15/6
