# Blender 3.3.0
# www.blender.org
mtllib TruckBody.mtl
o 立方体
v -5.000000 0.510972 1.888337
v -5.000000 4.840498 1.888337
v -5.000000 0.510972 -1.888336
v -5.000000 4.840498 -1.888336
v 5.000000 0.510972 1.888336
v 5.000000 4.840498 1.888336
v 5.000000 0.510972 -1.888337
v 5.000000 4.840498 -1.888337
v 4.234090 0.501144 1.638568
v 4.234090 3.721628 1.638568
v 4.234090 0.501144 -1.638569
v 4.234090 3.721628 -1.638569
v 7.765911 0.501144 1.638568
v 6.375947 3.721628 1.638568
v 7.765911 0.501144 -1.638569
v 6.375947 3.721628 -1.638569
vn -1.0000 -0.0000 -0.0000
vn -0.0000 -0.0000 -1.0000
vn 1.0000 -0.0000 -0.0000
vn -0.0000 -0.0000 1.0000
vn -0.0000 -1.0000 -0.0000
vn -0.0000 1.0000 -0.0000
vn 0.9181 0.3963 -0.0000
vt 0.322891 0.000000
vt 0.322891 0.645781
vt 0.322891 0.968672
vt 0.322891 0.322891
vt 0.322891 0.645781
vt 0.322891 0.000000
vt 0.322891 0.322891
vt 0.000000 0.645781
vt 0.000000 0.968672
vt 0.322891 0.322891
vt 0.645781 0.000000
vt 0.967295 0.000000
vt 0.645781 0.645781
vt 0.645781 0.000000
vt 0.645781 0.322891
vt 0.000000 0.645781
vt 0.967295 0.322891
vt 0.000000 0.000000
vt 0.645781 0.322891
vt 0.000000 0.322891
vt 0.645781 0.322891
vt 0.885961 0.883255
vt 0.436930 0.645781
vt 0.322891 0.925963
vt 0.645781 0.883255
vt 0.436930 0.885961
vt 0.620128 0.925963
vt 0.322891 0.645781
vt 0.885961 0.603073
vt 1.000000 0.603073
vt 0.645781 0.603073
vt 1.000000 0.843252
vt 0.620128 0.645781
vt 0.550969 0.645781
vt 0.889077 0.322891
vt 0.436930 0.925963
vt 0.645781 0.322891
vt 0.506088 0.885961
vt 0.550969 0.925963
vt 0.885961 0.603073
vt 0.889077 0.603073
vt 0.436930 0.645781
vt 0.550969 0.645781
vt 0.930841 0.843252
vt 0.645781 0.603073
s 0
usemtl マテリアル.001
f 2/3/1 3/8/1 1/2/1
f 4/10/2 7/18/2 3/6/2
f 8/21/3 5/12/3 7/17/3
f 6/15/4 1/1/4 5/11/4
f 7/19/5 1/2/5 3/7/5
f 4/10/6 6/16/6 8/20/6
f 10/25/1 11/29/1 9/22/1
f 11/30/2 16/44/2 15/40/2
f 16/45/7 13/35/7 15/41/7
f 14/38/4 9/23/4 13/34/4
f 15/42/5 9/24/5 11/28/5
f 12/33/6 14/39/6 16/43/6
f 2/3/1 4/9/1 3/8/1
f 4/10/2 8/20/2 7/18/2
f 8/21/3 6/14/3 5/12/3
f 6/15/4 2/4/4 1/1/4
f 7/19/5 5/13/5 1/2/5
f 4/10/6 2/5/6 6/16/6
f 10/25/1 12/31/1 11/29/1
f 11/30/2 12/32/2 16/44/2
f 16/45/7 14/37/7 13/35/7
f 14/38/4 10/26/4 9/23/4
f 15/42/5 13/36/5 9/24/5
f 12/33/6 10/27/6 14/39/6
